<?xml version="1.0" standalone="no"?>
<!DOCTYPE svg PUBLIC "-//W3C//DTD SVG 20010904//EN"
 "http://www.w3.org/TR/2001/REC-SVG-20010904/DTD/svg10.dtd">
<svg version="1.0" xmlns="http://www.w3.org/2000/svg"
 width="128.000000pt" height="128.000000pt" viewBox="0 0 128.000000 128.000000"
 preserveAspectRatio="xMidYMid meet">

<g transform="translate(0.000000,128.000000) scale(0.100000,-0.100000)"
fill="#000000" stroke="none">
<path d="M865 1268 c-2 -7 -6 -30 -7 -52 -3 -37 -4 -39 -67 -61 -35 -13 -71
-31 -79 -39 -15 -15 -20 -13 -53 20 -24 23 -43 34 -53 31 -25 -10 -19 -30 18
-66 l35 -34 -21 -31 -21 -32 -101 1 c-89 0 -108 -3 -158 -27 -31 -14 -76 -45
-101 -67 -49 -45 -102 -136 -112 -192 -5 -28 -17 -44 -50 -67 -121 -85 -119
-260 3 -347 43 -30 46 -30 188 -33 79 -2 144 -7 144 -12 0 -4 -11 -32 -25 -62
-44 -93 -28 -166 41 -188 25 -9 43 -9 68 0 69 22 85 95 41 188 -14 30 -25 58
-25 63 0 5 61 9 135 9 l135 0 0 -30 c0 -35 -5 -36 -45 -10 -39 26 -65 26 -65
0 0 -12 15 -28 40 -42 22 -13 40 -25 40 -28 0 -3 -18 -15 -40 -28 -25 -14 -40
-30 -40 -42 0 -26 26 -26 68 0 18 11 34 20 37 20 2 0 5 -24 7 -52 3 -45 6 -53
23 -53 17 0 20 8 23 53 2 28 6 52 9 52 3 0 22 -10 43 -21 39 -22 75 -20 68 4
-3 6 -20 22 -39 35 -19 13 -34 27 -34 32 0 5 15 19 34 32 19 13 36 29 39 35 7
24 -29 26 -68 4 -48 -27 -50 -27 -50 9 0 30 0 30 58 30 197 0 322 211 230 388
-23 44 -25 53 -12 69 8 10 21 42 30 71 15 51 16 52 53 52 20 0 46 7 57 15 19
15 19 15 0 30 -11 8 -37 15 -57 15 -34 0 -38 3 -44 33 -4 17 -19 53 -33 80
l-25 47 31 33 c35 36 40 55 16 64 -9 3 -28 -7 -50 -28 l-34 -33 -40 23 c-22
12 -59 28 -82 35 -42 11 -43 13 -48 61 -5 46 -25 72 -35 43z m110 -167 c120
-54 176 -191 125 -308 l-22 -51 -51 26 c-40 21 -65 27 -119 27 -61 0 -68 2
-78 23 -20 45 -61 90 -115 128 l-54 37 18 26 c33 46 78 82 117 96 54 20 132
18 179 -4z m-335 -170 c53 -27 115 -84 137 -125 14 -26 13 -29 -6 -43 -30 -20
-28 -53 3 -53 14 0 27 4 30 9 4 5 28 14 55 20 142 30 279 -94 256 -234 -10
-62 -49 -121 -103 -152 l-47 -28 -405 0 -405 0 -34 24 c-37 27 -71 91 -71 136
0 37 36 101 70 127 14 10 45 22 70 26 36 6 45 12 45 27 0 13 -8 21 -22 23 -27
4 -27 5 -7 65 28 82 120 167 214 198 47 16 171 4 220 -20z m-131 -750 c11 -27
21 -60 21 -72 0 -26 -27 -59 -48 -59 -24 0 -52 31 -52 57 0 28 39 123 50 123
4 0 17 -22 29 -49z"/>
<path d="M189 146 c-30 -57 -32 -66 -20 -94 27 -64 115 -64 142 0 12 28 10 37
-20 94 -22 42 -39 64 -51 64 -12 0 -29 -22 -51 -64z m70 -43 c10 -22 9 -29 -3
-42 -15 -14 -17 -14 -32 0 -12 13 -13 20 -3 42 7 15 15 27 19 27 4 0 12 -12
19 -27z"/>
</g>
</svg>
